<svg width="232" height="150" viewBox="0 0 232 150" fill="none" xmlns="http://www.w3.org/2000/svg">
<g clip-path="url(#clip0_1376_2)">
<path d="M80.348 98.4782C77.2598 96.7881 73.3568 98.0968 71.647 101.396C70.2702 104.052 70.7542 107.18 72.5983 109.19C71.539 110.655 70.217 111.617 68.5722 112.083C63.8877 113.41 58.0143 110.551 55.3622 109.038L60.862 98.4267C63.5506 98.9459 66.4188 97.6128 67.8186 94.9122C69.5284 91.6133 68.4072 87.5549 65.319 85.8648C62.2309 84.1747 58.3278 85.4833 56.618 88.7822C55.2182 91.4828 55.7422 94.6724 57.6619 96.6753L52.0575 107.488C49.3689 106.969 46.5007 108.302 45.101 111.003C43.3911 114.301 44.5123 118.36 47.6005 120.05C50.6886 121.74 54.5917 120.431 56.3015 117.132C56.7896 116.191 57.021 115.19 57.0689 114.198C60.5298 115.684 65.1911 116.982 69.4057 115.793C72.0442 115.05 74.1812 113.439 75.7904 111.02C78.5086 111.597 81.43 110.26 82.8475 107.526C84.5574 104.227 83.4362 100.168 80.348 98.4782ZM59.8182 90.5336C60.5508 89.1201 62.2239 88.5591 63.5472 89.2833C64.8704 90.0075 65.3511 91.7472 64.6184 93.1607C63.8857 94.5743 62.2127 95.1353 60.8894 94.4111C59.5661 93.6869 59.0855 91.9472 59.8182 90.5336ZM49.3723 116.631C48.0491 115.907 47.5684 114.168 48.3011 112.754C48.6513 112.08 49.2357 111.57 49.9279 111.334C50.6201 111.097 51.3644 111.154 51.9995 111.491L52.1987 111.622C52.5061 111.807 52.774 112.054 52.9869 112.35C53.1999 112.646 53.3539 112.986 53.4401 113.349C53.5262 113.712 53.5428 114.091 53.489 114.465C53.4352 114.84 53.312 115.202 53.1264 115.531C52.9408 115.86 52.6965 116.149 52.4074 116.382C52.1183 116.616 51.7901 116.788 51.4415 116.891C51.0929 116.993 50.7308 117.023 50.3757 116.978C50.0207 116.934 49.6797 116.816 49.3723 116.631ZM75.9184 107.025C74.5951 106.3 74.1145 104.561 74.8471 103.147C75.5798 101.734 77.2529 101.173 78.5761 101.897C79.8994 102.621 80.38 104.361 79.6474 105.774C78.9147 107.188 77.2416 107.749 75.9184 107.025Z" fill="#EDF2F7"/>
<path d="M59.752 134.96C50.216 134.96 42.856 131.984 37.672 126.032C32.552 120.016 29.992 111.472 29.992 100.4C29.992 89.392 32.584 80.88 37.768 74.864C42.952 68.848 50.28 65.84 59.752 65.84C63.592 65.84 67.176 66.512 70.504 67.856C73.896 69.136 76.744 70.96 79.048 73.328C78.664 74.8 78.024 76.048 77.128 77.072C76.232 78.096 75.304 78.608 74.344 78.608C73.448 78.608 72.616 78.32 71.848 77.744C69.928 76.272 67.976 75.216 65.992 74.576C64.072 73.872 61.928 73.52 59.56 73.52C53.032 73.52 48.104 75.792 44.776 80.336C41.448 84.816 39.784 91.504 39.784 100.4C39.784 109.168 41.448 115.824 44.776 120.368C48.168 124.912 53.096 127.184 59.56 127.184C62.504 127.184 65.224 126.736 67.72 125.84C70.216 124.88 72.584 123.408 74.824 121.424C75.848 121.68 76.712 122.224 77.416 123.056C78.12 123.888 78.472 124.816 78.472 125.84C78.472 127.44 77.608 128.944 75.88 130.352C74.152 131.696 71.816 132.816 68.872 133.712C65.992 134.544 62.952 134.96 59.752 134.96ZM114.7 134.96C110.028 134.96 105.804 134.32 102.028 133.04C98.316 131.696 95.404 129.872 93.292 127.568C91.18 125.2 90.124 122.544 90.124 119.6C90.124 118 90.732 116.72 91.948 115.76C93.228 114.8 94.956 114.288 97.132 114.224C97.964 118.512 99.884 121.808 102.892 124.112C105.964 126.352 109.964 127.472 114.892 127.472C119.82 127.472 123.692 126.416 126.508 124.304C129.388 122.128 130.828 119.216 130.828 115.568C130.828 112.432 129.548 109.936 126.988 108.08C124.428 106.16 119.948 104.336 113.548 102.608C108.172 101.136 103.916 99.568 100.78 97.904C97.644 96.176 95.34 94.192 93.868 91.952C92.46 89.648 91.756 86.896 91.756 83.696C91.756 78.192 93.836 73.84 97.996 70.64C102.156 67.44 107.852 65.84 115.084 65.84C121.228 65.84 126.38 67.28 130.54 70.16C134.764 73.04 137.612 77.104 139.084 82.352C138.444 82.992 137.58 83.536 136.492 83.984C135.404 84.368 134.348 84.56 133.324 84.56C132.364 84.56 131.532 84.336 130.828 83.888C130.188 83.44 129.644 82.704 129.196 81.68C127.852 78.992 125.932 76.912 123.436 75.44C121.004 73.968 118.22 73.232 115.084 73.232C110.54 73.232 107.116 74.064 104.812 75.728C102.508 77.392 101.356 79.888 101.356 83.216C101.356 85.072 101.772 86.64 102.604 87.92C103.5 89.136 104.972 90.288 107.02 91.376C109.132 92.4 112.14 93.488 116.044 94.64C122.764 96.624 127.852 98.48 131.308 100.208C134.764 101.936 137.164 103.888 138.508 106.064C139.916 108.176 140.62 110.896 140.62 114.224C140.62 118.384 139.532 122.032 137.356 125.168C135.244 128.304 132.236 130.736 128.332 132.464C124.428 134.128 119.884 134.96 114.7 134.96ZM176.294 134.96C171.622 134.96 167.398 134.32 163.622 133.04C159.91 131.696 156.998 129.872 154.886 127.568C152.774 125.2 151.718 122.544 151.718 119.6C151.718 118 152.326 116.72 153.542 115.76C154.822 114.8 156.55 114.288 158.726 114.224C159.558 118.512 161.478 121.808 164.486 124.112C167.558 126.352 171.558 127.472 176.486 127.472C181.414 127.472 185.286 126.416 188.102 124.304C190.982 122.128 192.422 119.216 192.422 115.568C192.422 112.432 191.142 109.936 188.582 108.08C186.022 106.16 181.542 104.336 175.142 102.608C169.766 101.136 165.51 99.568 162.374 97.904C159.238 96.176 156.934 94.192 155.462 91.952C154.054 89.648 153.35 86.896 153.35 83.696C153.35 78.192 155.43 73.84 159.59 70.64C163.75 67.44 169.446 65.84 176.678 65.84C182.822 65.84 187.974 67.28 192.134 70.16C196.358 73.04 199.206 77.104 200.678 82.352C200.038 82.992 199.174 83.536 198.086 83.984C196.998 84.368 195.942 84.56 194.918 84.56C193.958 84.56 193.126 84.336 192.422 83.888C191.782 83.44 191.238 82.704 190.79 81.68C189.446 78.992 187.526 76.912 185.03 75.44C182.598 73.968 179.814 73.232 176.678 73.232C172.134 73.232 168.71 74.064 166.406 75.728C164.102 77.392 162.95 79.888 162.95 83.216C162.95 85.072 163.366 86.64 164.198 87.92C165.094 89.136 166.566 90.288 168.614 91.376C170.726 92.4 173.734 93.488 177.638 94.64C184.358 96.624 189.446 98.48 192.902 100.208C196.358 101.936 198.758 103.888 200.102 106.064C201.51 108.176 202.214 110.896 202.214 114.224C202.214 118.384 201.126 122.032 198.95 125.168C196.838 128.304 193.83 130.736 189.926 132.464C186.022 134.128 181.478 134.96 176.294 134.96Z" fill="#EDF2F7"/>
<path d="M95.088 51.144C95.088 55.24 95.5147 58.2267 96.368 60.104C94.832 60.9147 93.3387 61.32 91.888 61.32C90.48 61.32 89.584 59.8693 89.2 56.968C87.92 58.5893 86.4693 59.784 84.848 60.552C83.2267 61.2773 81.2853 61.64 79.024 61.64C74.4587 61.64 70.8747 60.04 68.272 56.84C65.6693 53.64 64.368 49.2027 64.368 43.528C64.368 37.8107 65.7973 33.3307 68.656 30.088C71.5147 26.8027 75.4613 25.16 80.496 25.16C81.9467 25.16 83.4613 25.416 85.04 25.928C86.6613 26.3973 87.984 26.9947 89.008 27.72V10.376H95.088V51.144ZM79.792 57.224C81.7547 57.224 83.4827 56.7973 84.976 55.944C86.4693 55.048 87.8133 53.6827 89.008 51.848V32.648C88.112 31.7093 86.896 30.9413 85.36 30.344C83.8667 29.7467 82.352 29.448 80.816 29.448C77.488 29.448 74.928 30.664 73.136 33.096C71.3867 35.4853 70.512 38.9627 70.512 43.528C70.512 48.0507 71.3013 51.464 72.88 53.768C74.4587 56.072 76.7627 57.224 79.792 57.224ZM131.354 50.76C131.354 53.2347 131.503 55.112 131.802 56.392C132.143 57.672 132.719 58.7813 133.53 59.72C132.933 60.1893 132.207 60.5947 131.354 60.936C130.501 61.2347 129.711 61.384 128.986 61.384C127.023 61.384 125.85 59.6347 125.466 56.136C124.186 57.8853 122.543 59.2507 120.538 60.232C118.575 61.1707 116.357 61.64 113.882 61.64C110.682 61.64 108.101 60.808 106.138 59.144C104.218 57.48 103.258 55.2613 103.258 52.488C103.258 44.6373 110.597 40.3493 125.274 39.624V37.128C125.274 34.6533 124.655 32.8187 123.418 31.624C122.181 30.4293 120.261 29.832 117.658 29.832C115.951 29.832 114.351 30.1733 112.858 30.856C111.365 31.5387 109.658 32.7333 107.738 34.44C107.439 34.6533 107.162 34.76 106.906 34.76C106.351 34.76 105.754 34.4827 105.114 33.928C104.474 33.3307 103.877 32.52 103.322 31.496C105.114 29.4907 107.333 27.9333 109.978 26.824C112.623 25.7147 115.375 25.16 118.234 25.16C122.33 25.16 125.53 26.2267 127.834 28.36C130.181 30.4507 131.354 33.3733 131.354 37.128V50.76ZM115.226 57.224C117.189 57.224 119.023 56.648 120.73 55.496C122.437 54.3013 123.951 52.616 125.274 50.44V43.592C114.693 44.0613 109.402 46.8987 109.402 52.104C109.402 53.768 109.893 55.048 110.874 55.944C111.898 56.7973 113.349 57.224 115.226 57.224ZM168.061 25.8C167.549 32.456 166.29 38.664 164.285 44.424C162.28 50.1413 159.4 55.6667 155.645 61H149.885C146.045 55.6667 143.101 50.1413 141.053 44.424C139.048 38.664 137.789 32.456 137.277 25.8H143.485C143.912 31.56 144.85 36.7867 146.301 41.48C147.752 46.1307 149.906 50.6747 152.765 55.112C155.581 50.6747 157.693 46.1307 159.101 41.48C160.552 36.8293 161.469 31.6027 161.853 25.8H168.061Z" fill="#EDF2F7"/>
<path d="M186.702 150C184.105 150 182 148.173 182 145.921C182 143.669 184.105 141.842 186.702 141.842C197.364 141.842 206.038 134.316 206.038 125.063V89.3711C206.038 83.5705 209.139 78.3844 213.978 75C209.139 71.6156 206.038 66.4295 206.038 60.6289V24.9368C206.038 15.6844 197.364 8.15793 186.702 8.15793C184.105 8.15793 182 6.33101 182 4.07895C182 1.82268 184.105 1.19209e-06 186.702 1.19209e-06C202.549 1.19209e-06 215.442 11.1845 215.442 24.9368V60.6289C215.442 66.3033 220.761 70.921 227.299 70.921C229.895 70.921 232 72.7479 232 75C232 77.252 229.895 79.079 227.299 79.079C220.761 79.079 215.442 83.6967 215.442 89.3711V125.063C215.442 138.815 202.549 150 186.702 150Z" fill="#EDF2F7"/>
<path d="M45.2986 150C29.4519 150 16.5593 138.815 16.5593 125.063V89.3711C16.5593 83.6967 11.2399 79.079 4.70191 79.079C2.10526 79.079 0 77.252 0 75C0 72.7479 2.10526 70.921 4.70191 70.921C11.2399 70.921 16.5593 66.3033 16.5593 60.6289V24.9368C16.5593 11.1845 29.4519 -3.78224e-06 45.2986 -3.78224e-06C47.8952 -3.78224e-06 50 1.82267 50 4.07894C50 6.331 47.8952 8.15793 45.2986 8.15793C34.6364 8.15793 25.9626 15.6844 25.9626 24.9368V60.6289C25.9626 66.4295 22.861 71.6156 18.0223 75C22.861 78.3844 25.9626 83.5705 25.9626 89.3711V125.063C25.9626 134.316 34.6364 141.842 45.2986 141.842C47.8952 141.842 50 143.669 50 145.921C50 148.173 47.8952 150 45.2986 150Z" fill="#EDF2F7"/>
</g>
<defs>
<clipPath id="clip0_1376_2">
<rect width="232" height="150" fill="white"/>
</clipPath>
</defs>
</svg>
